<svg xmlns="http://www.w3.org/2000/svg" width="880" height="240" viewBox="0 0 880 240" font-family="ui-monospace,'Cascadia Code','JetBrains Mono',Consolas,'Courier New',monospace">
<defs>
<filter id="og" x="-60%" y="-60%" width="220%" height="220%">
<feGaussianBlur stdDeviation="1.8" result="b"/>
<feMerge><feMergeNode in="b"/><feMergeNode in="SourceGraphic"/></feMerge>
</filter>
<clipPath id="scopeClip"><rect x="24" y="56" width="832" height="140"/></clipPath>
<style>
.w1{animation:scroll1 7s linear infinite}
@keyframes scroll1{from{transform:translateX(0)}to{transform:translateX(-832px)}}
.w2{animation:scroll2 11s linear infinite}
@keyframes scroll2{from{transform:translateX(0)}to{transform:translateX(-832px)}}
.sweepX{animation:sweepX 5s ease-in-out infinite alternate}
@keyframes sweepX{from{transform:translateX(0)}to{transform:translateX(830px)}}
.blip{opacity:0;animation:blip 3s ease-in-out infinite}
@keyframes blip{0%,55%{opacity:0}62%{opacity:1}85%{opacity:0.2}100%{opacity:0}}
.cur{animation:cur 1.05s steps(1) infinite}
@keyframes cur{0%,49%{opacity:1}50%,100%{opacity:0}}
</style>
</defs>

<rect x="1" y="1" width="878" height="238" rx="14" fill="#0a0f14" stroke="#1c3a2c" stroke-width="1.5"/>

<text x="24" y="34" font-size="14" letter-spacing="2" fill="#00ff9c">⌁ SIGNAL SCOPE — MONITOR</text>
<text x="856" y="34" font-size="11" fill="#00e5ff" text-anchor="end" class="cur">MONITORING</text>

<g stroke="#12352a" stroke-opacity="0.9">
<line x1="76" y1="56" x2="76" y2="196"/>
<line x1="128" y1="56" x2="128" y2="196"/>
<line x1="180" y1="56" x2="180" y2="196"/>
<line x1="232" y1="56" x2="232" y2="196"/>
<line x1="284" y1="56" x2="284" y2="196"/>
<line x1="336" y1="56" x2="336" y2="196"/>
<line x1="388" y1="56" x2="388" y2="196"/>
<line x1="440" y1="56" x2="440" y2="196"/>
<line x1="492" y1="56" x2="492" y2="196"/>
<line x1="544" y1="56" x2="544" y2="196"/>
<line x1="596" y1="56" x2="596" y2="196"/>
<line x1="648" y1="56" x2="648" y2="196"/>
<line x1="700" y1="56" x2="700" y2="196"/>
<line x1="752" y1="56" x2="752" y2="196"/>
<line x1="804" y1="56" x2="804" y2="196"/>
<line x1="24" y1="79" x2="856" y2="79" stroke-opacity="0.6"/>
<line x1="24" y1="102" x2="856" y2="102"/>
<line x1="24" y1="125" x2="856" y2="125"/>
<line x1="24" y1="148" x2="856" y2="148"/>
<line x1="24" y1="171" x2="856" y2="171" stroke-opacity="0.6"/>
</g>
<line x1="24" y1="125" x2="856" y2="125" stroke="#1f6f4a" stroke-width="1"/>

<g clip-path="url(#scopeClip)">
<g class="w1">
<path d="M24,125 Q51,87 76,125 T128,125 T180,125 T232,125 T284,125 T336,125 T388,125 T440,125 T492,125 T544,125 T596,125 T648,125 T700,125 T752,125 T804,125 T856,125 M856,125 Q883,87 908,125 T960,125 T1012,125 T1064,125 T1116,125 T1168,125 T1220,125 T1272,125 T1324,125 T1376,125 T1428,125 T1480,125 T1532,125 T1584,125 T1636,125 T1688,125" fill="none" stroke="#00ff9c" stroke-width="2.5" filter="url(#og)"/>
</g>
<g class="w2">
<path d="M24,125 Q51,163 76,125 T128,125 T180,125 T232,125 T284,125 T336,125 T388,125 T440,125 T492,125 T544,125 T596,125 T648,125 T700,125 T752,125 T804,125 T856,125 M856,125 Q883,163 908,125 T960,125 T1012,125 T1064,125 T1116,125 T1168,125 T1220,125 T1272,125 T1324,125 T1376,125 T1428,125 T1480,125 T1532,125 T1584,125 T1636,125 T1688,125" fill="none" stroke="#00e5ff" stroke-width="1.8" opacity="0.75"/>
</g>
<rect x="24" y="56" width="2" height="140" fill="#00e5ff" opacity="0.5" filter="url(#og)" class="sweepX"/>
<circle cx="220" cy="97" r="3.5" fill="#ff2e63" filter="url(#og)" class="blip"/>
<circle cx="570" cy="101" r="3.5" fill="#ff2e63" filter="url(#og)" class="blip" style="animation-delay:1.2s"/>
<circle cx="760" cy="149" r="3.5" fill="#ff2e63" filter="url(#og)" class="blip" style="animation-delay:2.1s"/>
</g>

<g font-size="11" fill="#79d9b6" opacity="0.85">
<text x="24" y="222">CH1 offensive // CH2 defensive</text>
<text x="856" y="222" text-anchor="end">sweep 832px · gain auto · trace continuous</text>
</g>
</svg>
